<?xml version="1.0" encoding="utf-8"?>
<!-- Generator: Adobe Illustrator 22.0.1, SVG Export Plug-In . SVG Version: 6.00 Build 0)  -->
<svg version="1.1" id="Layer_1" xmlns="http://www.w3.org/2000/svg" xmlns:xlink="http://www.w3.org/1999/xlink" x="0px" y="0px"
	 viewBox="0 0 18 24" style="enable-background:new 0 0 18 24;" xml:space="preserve">
<style type="text/css">
	.st0{fill:#FFFFFF;}
</style>
<title>ic_Doctors@1.5x</title>
<desc>Created with Sketch.</desc>
<g id="Symbols">
	<g id="tabbar" transform="translate(-103.000000, -32.000000)">
		<g id="ic_Doctors">
			<g transform="translate(103.500000, 32.500000)">
				<g>
					<path class="st0" d="M5,2.8v2.5c1-0.4,2.3-0.6,3.7-0.6h0c1.2,0,2.3,0.2,3.2,0.4l0,0c0,0,0.1,0,0.1,0l0,0c0,0,0.1,0,0.1,0l0,0
						c0,0,0,0,0,0c0,0,0.1,0,0.1,0c0,0,0,0,0,0l0,0c0,0,0,0,0,0V2.8c-0.1-0.3-0.9-1.4-3.7-1.4h0C5.9,1.3,5.1,2.5,5,2.8L5,2.8z
						 M11.5,12c0.1,0.9,0.3,1.6,0.6,2.1c0.1,0,0.1,0,0.2,0c2.8,0,5.1,2.3,5.1,5.1v3.6c0,0.4-0.3,0.7-0.7,0.7H0.7
						c-0.4,0-0.7-0.3-0.7-0.7v-3.6C0,16.3,2.3,14,5.1,14c0.1,0,0.1,0,0.2,0c0.3-0.5,0.5-1.2,0.5-2.1c-0.7-0.5-1.2-1.2-1.6-1.9
						c0,0,0,0,0,0l0,0C4.2,9.8,4.1,9.5,4,9.1C3.9,8.9,3.9,8.6,3.8,8.4C3.7,7.7,3.6,6.7,3.7,5.7v-3c0-0.1,0-0.1,0-0.2
						c0-0.1,0.8-2.4,5-2.4h0c3.7,0,4.7,1.8,4.9,2.3c0,0,0,0,0,0c0,0.1,0,0.1,0.1,0.2c0,0.1,0,0.1,0,0.2v2.9c0,0.7,0,1.4,0,1.8
						C13.7,7.7,13.3,8,13,8c-0.4,0-0.6-0.3-0.6-0.7c0-0.2,0-0.3,0-0.5c-0.1,0-0.1-0.1-0.2-0.1l0,0c0,0,0,0-0.1,0l-0.3-0.1
						c0,0,0,0-0.1,0l0,0c0,0-0.1,0-0.1,0l0,0c0,0-0.1,0-0.1,0l0,0C10.8,6.2,9.7,6,8.7,6h0C6.9,6,5.5,6.4,5,6.8c0,0.5,0.1,1,0.1,1.4
						c0,0.2,0.1,0.4,0.1,0.5c0.1,0.4,0.2,0.6,0.2,0.7c0,0,0,0,0,0c0.6,1.1,1.8,2.3,3.2,2.3c0.6,0,1.2-0.2,1.7-0.6c0,0,0.1,0,0.1-0.1
						c0,0,0.1-0.1,0.1-0.1c0.5-0.4,0.8-0.8,1-1.1c0.2-0.3,0.6-0.4,0.9-0.2c0.3,0.2,0.4,0.6,0.2,0.9C12.4,11.1,11.9,11.6,11.5,12z
						 M10.2,12.7c-0.5,0.2-1,0.3-1.5,0.3c0,0,0,0,0,0c0,0,0,0,0,0c-0.5,0-1.1-0.1-1.6-0.3c-0.1,0.9-0.4,1.6-0.7,2.1l2,1.6
						c0.1,0.1,0.2,0.1,0.3,0.1c0.1,0,0.2,0,0.3-0.1l2-1.6C10.6,14.3,10.4,13.6,10.2,12.7z M1.3,22.1h14.7v-3c0-2-1.6-3.7-3.6-3.8
						l-2.6,2.1c-0.3,0.3-0.7,0.4-1.1,0.4s-0.8-0.1-1.1-0.4l-2.6-2.1c-2,0.1-3.6,1.8-3.6,3.8V22.1z"/>
				</g>
			</g>
		</g>
	</g>
</g>
</svg>
